<svg xmlns="http://www.w3.org/2000/svg" viewBox="0 0 48 48"><path fill="#9dcc6b" d="M46.4,17.93a7.33,7.33,0,0,1-3.8-.56c-3.64-1.63-4.13.42-8.45-2.15C36.47,8.27,47.1,8.8,46.4,17.93Z"/><path fill="#db5669" d="M46.4,17.93c-.35,7-5.91,16.69-13.93,23.94C24.16,49.39,9,45.3,4.77,43.34c-1.87-.87-2.61-.56-3.32-1.5A2.27,2.27,0,0,1,2.6,38.3C7.91,36.76,12,40,21.22,35.11c12.39-6.5,11-14.58,12.93-19.89,4.34,2.58,4.83.52,8.45,2.15A7.33,7.33,0,0,0,46.4,17.93Z"/><path fill="#f26674" d="M44.32,17.88c-.77,6.94-6.18,16.06-13.85,23C22.16,48.39,7,44.3,2.77,42.34a9.64,9.64,0,0,0-1.32-.5A2.27,2.27,0,0,1,2.6,38.3C7.91,36.76,12,40,21.22,35.11c12.39-6.5,11-14.58,12.93-19.89a8.49,8.49,0,0,0,4.72,1.43C41.64,16.52,42.82,17.74,44.32,17.88Z"/><path fill="#9dcc6b" d="M44.1,11.65a5.18,5.18,0,0,0-4.39-1.09c.67-2.77,2-6.76,4-8.79L46,3A16.9,16.9,0,0,0,44.1,11.65Z"/><path fill="#b5e08c" d="M44.8 2.36A16.85 16.85 0 0 0 43.2 8 1.84 1.84 0 0 1 41 9.58a6 6 0 0 0-1-.09c.6-2.16 1.8-5.79 3.72-7.72zM44.32 17.88a5.47 5.47 0 0 1-1.72-.51c-3.64-1.63-4.13.42-8.45-2.15a6.63 6.63 0 0 1 5.56-4.66 6.34 6.34 0 0 1 2.39.09C42.1 10.86 45 12.25 44.32 17.88z"/></svg>