<svg xmlns="http://www.w3.org/2000/svg" viewBox="0 0 48 48"><path fill="#9dcc6b" d="M34.23,15.68c.89,3-3.94,3.95-3.94,3.95-.25.25-.54.54-.85.83A7.71,7.71,0,0,1,24,22.64c-2.84,0-4.53-1.25-6.29-3,0,0-4.83-.92-3.94-3.95a3.17,3.17,0,0,1-.57-3.22c.61-1.83,3.39-1.79,4.48-.69a2.41,2.41,0,0,1,2.77,1.1C20,12,17.39,7.05,20.54,5.1c0-2.2,2.39-5,4.58-3.8a4.64,4.64,0,0,1,2.34,3.8c3.15,2,.57,6.9.09,7.77a2.41,2.41,0,0,1,2.77-1.1,3.17,3.17,0,0,1,3.22-.57C35.37,11.81,35.33,14.59,34.23,15.68Z"/><path fill="#b5e08c" d="M29.7,11.67c-.17.24-.22.29,0,0Z"/><path fill="#b5e08c" d="M34.23,15.68c.65,2.2-1.86,3.56-3.94,3.95a11.45,11.45,0,0,1-1.81,1.6,7.68,7.68,0,0,1-2.48.41c-2.83,0-4.53-1.25-6.29-3,0,0-4.83-.92-3.94-3.95a3.17,3.17,0,0,1-.57-3.22,1.88,1.88,0,0,1,.22-.45,3.06,3.06,0,0,1,2.26.76,2.41,2.41,0,0,1,2.77,1.1,14,14,0,0,1-1-2.28,1.64,1.64,0,0,1,.23.18,2.41,2.41,0,0,1,2.77,1.1C22,11,19.39,6.05,22.54,4.1A4.71,4.71,0,0,1,23.93,1c1.87,0,3.53,2.25,3.53,4.1,3.15,2,.57,6.9.09,7.77a2.51,2.51,0,0,1,2.11-1.2c-.18.29-.13.24,0,0a2.42,2.42,0,0,1,.62.1,3.15,3.15,0,0,1,4-.09A3.15,3.15,0,0,1,34.23,15.68Z"/><path fill="#9dcc6b" d="M18.58,25.88c2.05,1.12,0,4.13,0,4.13,0,.26,0,.56,0,.88a5.71,5.71,0,0,1-1.71,4A6.09,6.09,0,0,1,12,36.59s-3,2-4.13,0a2.33,2.33,0,0,1-2-1.38c-.63-1.27.83-2.71,2-2.71a1.79,1.79,0,0,1,2-.87c-.71-.2-4.65-1.44-4-4.11-1.15-1.15-1.37-3.87.41-4.38a3.44,3.44,0,0,1,3.21.76c2.67-.63,3.91,3.31,4.11,4a1.79,1.79,0,0,1,.87-2,2.36,2.36,0,0,1,1.39-2C17.15,23.27,18.59,24.73,18.58,25.88Z"/><path fill="#b5e08c" d="M14.62,25.91c-.13-.44-.11-.22,0-.55A2.55,2.55,0,0,0,14.62,25.91Z"/><path fill="#b5e08c" d="M18.59,30a7.29,7.29,0,0,1-.23,2.3C17,34.17,15.1,34.59,13,34.59c0,0-3,2-4.13,0a2.37,2.37,0,0,1-2.09-1.72,2.17,2.17,0,0,1,1.09-.37,1.79,1.79,0,0,1,2-.87,10.65,10.65,0,0,1-2-.82,2.13,2.13,0,0,1,1-.31,1.79,1.79,0,0,1,2-.87c-.71-.2-4.65-1.44-4-4.11A3.46,3.46,0,0,1,6,23.25a1.34,1.34,0,0,1,.3-.12,3.44,3.44,0,0,1,3.21.76c2.67-.63,3.91,3.31,4.11,4a1.79,1.79,0,0,1,.87-2,2,2,0,0,1,0-.29c.2.57,0,.31.06-.23a2.3,2.3,0,0,1,2-1.61,2.3,2.3,0,0,1,2,2.13C20.63,27,18.59,30,18.59,30Z"/><path fill="#9dcc6b" d="M29.42,25.88c-2.05,1.12,0,4.13,0,4.13,0,.26,0,.56,0,.88a5.71,5.71,0,0,0,1.71,4A6.09,6.09,0,0,0,36,36.59s3,2,4.13,0a2.33,2.33,0,0,0,2-1.38c.63-1.27-.83-2.71-2-2.71a1.79,1.79,0,0,0-2-.87c.71-.2,4.64-1.44,4-4.11,1.15-1.15,1.37-3.87-.41-4.38a3.44,3.44,0,0,0-3.21.76c-2.67-.63-3.91,3.31-4.11,4a1.79,1.79,0,0,0-.87-2,2.36,2.36,0,0,0-1.39-2C30.85,23.27,29.41,24.73,29.42,25.88Z"/><path fill="#b5e08c" d="M29.41,30a7.29,7.29,0,0,0,.23,2.3C31,34.17,32.9,34.59,35,34.59c0,0,3,2,4.13,0a2.37,2.37,0,0,0,2.09-1.72,2.17,2.17,0,0,0-1.09-.37,1.79,1.79,0,0,0-2-.87,10.65,10.65,0,0,0,2-.82,2.13,2.13,0,0,0-1-.31,1.79,1.79,0,0,0-2-.87c.71-.2,4.65-1.44,4-4.11A3.46,3.46,0,0,0,42,23.25a1.34,1.34,0,0,0-.3-.12,3.44,3.44,0,0,0-3.21.76c-2.67-.63-3.91,3.31-4.11,4a1.79,1.79,0,0,0-.87-2,2,2,0,0,0,0-.29c-.2.57,0,.31-.06-.23a2.3,2.3,0,0,0-2-1.61,2.3,2.3,0,0,0-2,2.13C27.37,27,29.41,30,29.41,30Z"/><path fill="#9dcc6b" d="M33.12,31.46,25,39.59V16a1,1,0,0,0-2,0V39.59l-8.12-8.13a1,1,0,0,0-1.42,1.42L23,42.41V47a1,1,0,0,0,2,0V42.41l9.54-9.53A1,1,0,0,0,33.12,31.46Z"/></svg>